Coordinates
version=1
nRows=10
nColumns=22
inDegrees=yes

Units are S.I. units (second, meters, Newtons, ...)
If the header above contains a line with 'inDegrees', this indicates whether rotational values are in degrees (yes) or radians (no).

endheader
time	pelvis_tilt	pelvis_list	pelvis_rotation	pelvis_tx	pelvis_ty	pelvis_tz	hip_flexion_r	hip_adduction_r	hip_rotation_r	knee_angle_r	ankle_angle_r	subtalar_angle_r	hip_flexion_l	hip_adduction_l	hip_rotation_l	knee_angle_l	ankle_angle_l	subtalar_angle_l	lumbar_extension	lumbar_bending	lumbar_rotation
      4.12000000	      4.33713800	      5.81202870	     92.54105719	      0.79214872	      1.07893111	      0.02809066	      3.98681376	      6.27331723	     -3.94804406	    -16.18946051	      7.56821854	     -3.91477347	      6.64093638	     -3.41608150	     12.20993165	    -60.79825153	     -8.37584446	     12.98001481	     -5.18862885	      2.59262190	     -6.43423024
      4.13000000	      4.30463259	      5.87852686	     92.76215419	      0.79403499	      1.07933235	      0.02384330	      3.63783246	      6.39207574	     -4.05000872	    -16.11439715	      7.69997682	     -4.05495283	      7.43982498	     -3.58014295	     11.78684806	    -61.30787295	     -7.41036245	     11.58558354	     -5.25535683	      2.50266049	     -6.19015391
      4.14000000	      4.27733107	      5.93072684	     92.96945830	      0.79586715	      1.07968660	      0.01968312	      3.30725477	      6.51311246	     -4.14380584	    -16.03479252	      7.82808288	     -4.17879978	      8.20822453	     -3.75768885	     11.34542055	    -61.65746412	     -6.21468264	     10.23434604	     -5.30821435	      2.42105406	     -5.93435499
      4.15000000	      4.23814148	      5.96820591	     93.16271575	      0.79763843	      1.07999194	      0.01561408	      3.00094224	      6.61508750	     -4.23486194	    -15.96351383	      7.96711914	     -4.28864375	      8.94172010	     -3.93402110	     10.87262785	    -61.84184848	     -4.85479180	      8.95128766	     -5.34885174	      2.32998794	     -5.67792288
      4.16000000	      4.18982092	      5.99448750	     93.34129942	      0.79934724	      1.08024757	      0.01163432	      2.71535806	      6.70141878	     -4.32352189	    -15.90058151	      8.11498195	     -4.38382515	      9.63313360	     -4.11042271	     10.37045985	    -61.86196415	     -3.38948830	      7.78322588	     -5.37990244	      2.23216525	     -5.41889874
      4.17000000	      4.13773130	      6.01525793	     93.50384074	      0.80099139	      1.08045948	      0.00772735	      2.44116869	      6.77759385	     -4.40795688	    -15.84217150	      8.26792011	     -4.46674067	     10.27127810	     -4.29231755	      9.83989938	    -61.71767643	     -1.87431409	      6.73886531	     -5.40369392	      2.13547148	     -5.15446178
      4.18000000	      4.10784252	      6.03917676	     93.64081957	      0.80259083	      1.08062773	      0.00388785	      2.16443644	      6.87400617	     -4.47280389	    -15.77728129	      8.45361632	     -4.53428876	     10.84611177	     -4.51085217	      9.27945605	    -61.41501587	     -0.34812571	      5.89276464	     -5.42901873	      2.06909150	     -4.86076283
      4.19000000	      4.03639454	      6.06356459	     93.78365978	      0.80407240	      1.08079603	      0.00011914	      1.89193525	      6.91658250	     -4.55803771	    -15.71950044	      8.57689893	     -4.60681227	     11.34658013	     -4.68062515	      8.70871815	    -60.93512741	      1.11866257	      5.02397805	     -5.45437826	      1.96496575	     -4.61231516
      4.20000000	      3.99834907	      6.09758739	     93.90931881	      0.80549374	      1.08092805	     -0.00359584	      1.60367026	      6.99211089	     -4.62850058	    -15.64450395	      8.75830877	     -4.66292457	     11.77491179	     -4.88880537	      8.13005812	    -60.30961674	      2.53119477	      4.41831290	     -5.48391574	      1.90452661	     -4.33093623
      4.21000000	      3.93536946	      6.14295934	     94.03912001	      0.80680596	      1.08108485	     -0.00724841	      1.30174379	      7.03467954	     -4.71038556	    -15.56318264	      8.86804611	     -4.73413487	     12.11508850	     -5.06315410	      7.54538706	    -59.51981100	      3.83155725	      3.78784845	     -5.52443522	      1.82547109	     -4.10013478
